<?xml version="1.0" encoding="iso-8859-1"?>
<!-- Generator: Adobe Illustrator 19.0.0, SVG Export Plug-In . SVG Version: 6.00 Build 0)  -->
<svg version="1.1" id="Capa_1" xmlns="http://www.w3.org/2000/svg" xmlns:xlink="http://www.w3.org/1999/xlink" x="0px" y="0px"
	 viewBox="0 0 512 512" style="enable-background:new 0 0 512 512;" xml:space="preserve">
<path style="fill:#C9C6CA;" d="M256,0.004C114.845,0.004,0,114.845,0,256s114.845,255.996,256,255.996S512,397.155,512,256
	S397.155,0.004,256,0.004z"/>
<path style="fill:#FF6464;" d="M17.662,256c0-90.875,51.143-169.994,126.143-210.181c4.776-2.559,9.55,3.075,6.292,7.404
	c-23.326,31.008-33.41,72.47-21.461,116.126c15.773,57.622,69.955,94.309,129.685,95.501
	c63.296,1.262,114.187,54.032,112.386,118.026c-1.814,64.474-59.334,113.721-123.788,111.295
	C119.685,489.382,17.662,384.381,17.662,256z"/>
<path style="fill:#FFDC8C;" d="M361.903,458.777c23.326-31.008,33.41-72.47,21.461-116.126
	c-15.773-57.622-69.955-94.309-129.685-95.501c-63.296-1.262-114.186-54.032-112.386-118.026
	c1.814-64.474,59.334-113.721,123.788-111.295C392.315,22.618,494.338,127.62,494.338,256c0,90.875-51.143,169.994-126.142,210.181
	C363.418,468.74,358.645,463.106,361.903,458.777z"/>
<path style="fill:#FFC850;" d="M265.081,17.828c-41.214-1.551-79.513,18.084-102.305,49.259
	c21.438-15.605,48.249-24.4,76.388-23.341c127.233,4.79,229.257,109.791,229.257,238.171c0,59.164-21.772,113.26-57.596,154.958
	c51.043-43.732,83.512-108.54,83.512-180.874C494.338,127.62,392.315,22.618,265.081,17.828z"/>
<path style="fill:#D75050;" d="M128.637,169.35c-11.949-43.656-1.864-85.118,21.461-116.126c3.258-4.331-1.515-9.965-6.292-7.405
	c-16.012,8.58-30.851,19.028-44.423,30.892c-11.357,31.936-13.034,67.277-3.629,101.637
	c19.319,70.581,84.377,119.041,161.891,120.589c21.594,0.431,41.74,9.327,56.725,25.053c14.963,15.701,25.074,36.273,24.464,57.928
	c-0.685,24.367-6.481,49.518-29.564,78.638c-17.965,22.663-35.864,30.64-52.388,33.5c60.301-2.693,112.107-50.051,113.827-111.177
	c1.8-63.993-49.091-116.764-112.386-118.026C198.592,263.659,144.41,226.971,128.637,169.35z"/>
<g>
	<path style="fill:#FFC850;" d="M59.969,204.862c-2.181,0-4.362-0.832-6.026-2.497c-3.329-3.329-3.329-8.723,0-12.053l8.523-8.523
		c3.329-3.329,8.723-3.329,12.053,0c3.329,3.329,3.329,8.723,0,12.053l-8.523,8.523C64.331,204.03,62.15,204.862,59.969,204.862z"/>
	<path style="fill:#FFC850;" d="M213.385,332.708c-4.711,0-8.523-3.816-8.523-8.523v-8.523c0-4.707,3.812-8.523,8.523-8.523
		s8.523,3.816,8.523,8.523v8.523C221.908,328.891,218.096,332.708,213.385,332.708z"/>
</g>
<path style="fill:#FFB45A;" d="M238.954,434.984c-2.181,0-4.362-0.832-6.026-2.497l-8.523-8.523c-3.329-3.329-3.329-8.723,0-12.053
	c3.329-3.329,8.723-3.329,12.053,0l8.523,8.523c3.329,3.329,3.329,8.723,0,12.053C243.316,434.152,241.135,434.984,238.954,434.984z
	"/>
<g>
	<path style="fill:#FF8C82;" d="M102.585,366.8h-8.523c-4.711,0-8.523-3.816-8.523-8.523c0-4.707,3.812-8.523,8.523-8.523h8.523
		c4.711,0,8.523,3.816,8.523,8.523C111.108,362.984,107.296,366.8,102.585,366.8z"/>
	<path style="fill:#FF8C82;" d="M281.569,324.185c-2.181,0-4.362-0.832-6.026-2.497c-3.329-3.329-3.329-8.723,0-12.053l8.523-8.523
		c3.329-3.329,8.723-3.329,12.053,0s3.329,8.723,0,12.053l-8.523,8.523C285.931,323.353,283.75,324.185,281.569,324.185z"/>
</g>
<path style="fill:#FFB45A;" d="M119.631,230.431c-2.181,0-4.362-0.832-6.026-2.497l-8.523-8.523c-3.329-3.329-3.329-8.723,0-12.053
	c3.329-3.329,8.723-3.329,12.053,0l8.523,8.523c3.329,3.329,3.329,8.723,0,12.053C123.993,229.599,121.812,230.431,119.631,230.431z
	"/>
<g>
	<path style="fill:#FFC850;" d="M332.708,392.369c-4.711,0-8.523-3.816-8.523-8.523v-8.523c0-4.707,3.812-8.523,8.523-8.523
		s8.523,3.816,8.523,8.523v8.523C341.231,388.553,337.419,392.369,332.708,392.369z"/>
	<path style="fill:#FFC850;" d="M187.815,460.554c-2.181,0-4.362-0.832-6.026-2.497c-3.329-3.329-3.329-8.723,0-12.053l8.523-8.523
		c3.329-3.329,8.723-3.329,12.053,0c3.329,3.329,3.329,8.723,0,12.053l-8.523,8.523
		C192.177,459.722,189.996,460.554,187.815,460.554z"/>
</g>
<path style="fill:#D75050;" d="M153.806,332.708c-4.711,0-8.565-3.816-8.565-8.523s3.77-8.523,8.482-8.523h0.083
	c4.711,0,8.523,3.816,8.523,8.523S158.517,332.708,153.806,332.708z"/>
<path style="fill:#FF8C82;" d="M179.292,290.092c-4.711,0-8.565-3.816-8.565-8.523c0-4.707,3.77-8.523,8.482-8.523h0.083
	c4.711,0,8.523,3.816,8.523,8.523C187.815,286.276,184.003,290.092,179.292,290.092z"/>
<g>
	<path style="fill:#D75050;" d="M230.514,383.846c-4.711,0-8.565-3.816-8.565-8.523c0-4.707,3.77-8.523,8.482-8.523h0.083
		c4.711,0,8.523,3.816,8.523,8.523C239.037,380.03,235.225,383.846,230.514,383.846z"/>
	<path style="fill:#D75050;" d="M290.175,460.554c-4.711,0-8.565-3.816-8.565-8.523c0-4.707,3.77-8.523,8.482-8.523h0.083
		c4.711,0,8.523,3.816,8.523,8.523C298.698,456.737,294.887,460.554,290.175,460.554z"/>
	<path style="fill:#D75050;" d="M68.576,315.661c-4.711,0-8.565-3.816-8.565-8.523s3.77-8.523,8.482-8.523h0.083
		c4.711,0,8.523,3.816,8.523,8.523S73.287,315.661,68.576,315.661z"/>
</g>
<g>
	<path style="fill:#FF8C82;" d="M77.016,247.477c-4.711,0-8.565-3.816-8.565-8.523c0-4.707,3.77-8.523,8.482-8.523h0.083
		c4.711,0,8.523,3.816,8.523,8.523C85.539,243.661,81.727,247.477,77.016,247.477z"/>
	<path style="fill:#FF8C82;" d="M85.622,162.246c-4.711,0-8.565-3.816-8.565-8.523s3.77-8.523,8.482-8.523h0.083
		c4.711,0,8.523,3.816,8.523,8.523S90.333,162.246,85.622,162.246z"/>
</g>
<g>
	<path style="fill:#FFB45A;" d="M371.537,156.045l-38.12-42.416c-2.381-2.65-2.864-6.501-1.209-9.656l8.5-16.206
		c2.575-4.91,9.08-6.093,13.219-2.404l38.442,34.267c2.602,2.319,3.53,5.989,2.343,9.265l-8.821,24.355
		C383.697,159.305,375.841,160.835,371.537,156.045z"/>
	<path style="fill:#FFB45A;" d="M312.493,194.782l-37.888,17.995c-2.367,1.124-5.183,0.657-7.061-1.17l-9.646-9.386
		c-2.923-2.845-2.395-7.678,1.073-9.824l32.21-19.929c2.18-1.349,4.961-1.235,7.023,0.289l15.324,11.32
		C317.337,186.892,316.771,192.75,312.493,194.782z"/>
	<path style="fill:#FFB45A;" d="M412.071,343.868l12.363-40.082c0.772-2.504,3.02-4.264,5.637-4.411l13.438-0.76
		c4.072-0.23,7.276,3.427,6.512,7.433l-7.099,37.205c-0.48,2.518-2.445,4.49-4.961,4.979l-18.702,3.635
		C414.608,352.772,410.675,348.392,412.071,343.868z"/>
</g>
<path style="fill:#ADDF6E;" d="M324.185,238.954c-2.181,0-4.362-0.832-6.026-2.497c-3.329-3.329-3.329-8.723,0-12.053l8.523-8.523
	c3.329-3.329,8.723-3.329,12.053,0c3.329,3.329,3.329,8.723,0,12.053l-8.523,8.523C328.546,238.122,326.365,238.954,324.185,238.954
	z"/>
<path style="fill:#FFB45A;" d="M426.461,162.246c-4.711,0-8.523-3.816-8.523-8.523V145.2c0-4.707,3.812-8.523,8.523-8.523
	s8.523,3.816,8.523,8.523v8.523C434.984,158.43,431.173,162.246,426.461,162.246z"/>
<path style="fill:#F7F0E6;" d="M417.938,409.415c-4.711,0-8.523-3.816-8.523-8.523v-8.523c0-4.707,3.812-8.523,8.523-8.523
	s8.523,3.816,8.523,8.523v8.523C426.461,405.599,422.649,409.415,417.938,409.415z"/>
<g>
	<path style="fill:#ADDF6E;" d="M187.815,179.292c-2.181,0-4.362-0.832-6.026-2.497l-8.523-8.523c-3.329-3.329-3.329-8.723,0-12.053
		c3.329-3.329,8.723-3.329,12.053,0l8.523,8.523c3.329,3.329,3.329,8.723,0,12.053C192.177,178.46,189.996,179.292,187.815,179.292z
		"/>
	<path style="fill:#ADDF6E;" d="M281.569,77.016c-2.181,0-4.362-0.832-6.026-2.497c-3.329-3.329-3.329-8.723,0-12.053l8.523-8.523
		c3.329-3.329,8.723-3.329,12.053,0c3.329,3.329,3.329,8.723,0,12.053l-8.523,8.523C285.931,76.183,283.75,77.016,281.569,77.016z"
		/>
</g>
<path style="fill:#FFB45A;" d="M307.138,145.2c-4.711,0-8.523-3.816-8.523-8.523v-8.523c0-4.707,3.812-8.523,8.523-8.523
	s8.523,3.816,8.523,8.523v8.523C315.661,141.384,311.85,145.2,307.138,145.2z"/>
<g>
	<path style="fill:#F7F0E6;" d="M341.314,179.292c-4.711,0-8.565-3.816-8.565-8.523s3.77-8.523,8.482-8.523h0.083
		c4.711,0,8.523,3.816,8.523,8.523S346.025,179.292,341.314,179.292z"/>
	<path style="fill:#F7F0E6;" d="M239.037,59.969c-4.711,0-8.565-3.816-8.565-8.523s3.77-8.523,8.482-8.523h0.083
		c4.711,0,8.523,3.816,8.523,8.523S243.748,59.969,239.037,59.969z"/>
	<path style="fill:#F7F0E6;" d="M221.908,204.862c-4.711,0-8.565-3.816-8.565-8.523s3.77-8.523,8.482-8.523h0.083
		c4.711,0,8.523,3.816,8.523,8.523S226.619,204.862,221.908,204.862z"/>
</g>
<g>
	<path style="fill:#FFB45A;" d="M324.268,68.492c-4.711,0-8.565-3.816-8.565-8.523s3.77-8.523,8.482-8.523h0.083
		c4.711,0,8.523,3.816,8.523,8.523S328.979,68.492,324.268,68.492z"/>
	<path style="fill:#FFB45A;" d="M179.292,128.154c-4.711,0-8.565-3.816-8.565-8.523s3.77-8.523,8.482-8.523h0.083
		c4.711,0,8.523,3.816,8.523,8.523S184.003,128.154,179.292,128.154z"/>
</g>
<path style="fill:#F7F0E6;" d="M452.114,196.339c-4.711,0-8.565-3.816-8.565-8.523s3.77-8.523,8.482-8.523h0.083
	c4.711,0,8.523,3.816,8.523,8.523S456.825,196.339,452.114,196.339z"/>
<path style="fill:#FFB45A;" d="M392.452,298.615c-4.711,0-8.565-3.816-8.565-8.523c0-4.707,3.77-8.523,8.482-8.523h0.083
	c4.711,0,8.523,3.816,8.523,8.523C400.975,294.799,397.163,298.615,392.452,298.615z"/>
<path style="fill:#ADDF6E;" d="M469.16,273.046c-4.711,0-8.565-3.816-8.565-8.523c0-4.707,3.77-8.523,8.482-8.523h0.083
	c4.711,0,8.523,3.816,8.523,8.523C477.683,269.23,473.871,273.046,469.16,273.046z"/>
<circle style="fill:#F7F0E6;" cx="238.955" cy="111.109" r="34.092"/>
<path style="fill:#EEE2D4;" d="M251.738,132.415c-18.829,0-34.092-15.264-34.092-34.092c0-6.118,1.742-11.779,4.564-16.744
	c-10.312,5.863-17.349,16.818-17.349,29.528c0,18.829,15.264,34.092,34.092,34.092c12.71,0,23.666-7.037,29.528-17.349
	C263.518,130.674,257.857,132.415,251.738,132.415z"/>
<circle style="fill:#F7F0E6;" cx="400.893" cy="230.432" r="34.092"/>
<path style="fill:#EEE2D4;" d="M413.677,251.738c-18.829,0-34.092-15.264-34.092-34.092c0-6.118,1.742-11.779,4.564-16.744
	c-10.312,5.863-17.349,16.818-17.349,29.528c0,18.829,15.264,34.092,34.092,34.092c12.71,0,23.666-7.037,29.528-17.349
	C425.457,249.997,419.795,251.738,413.677,251.738z"/>
<g>
	<path style="fill:#FF9B4B;" d="M343.262,97.439c-2.328-2.589-3.261-6.045-2.72-9.358l-8.336,15.891
		c-1.655,3.155-1.173,7.007,1.209,9.656l38.12,42.416c4.304,4.789,12.16,3.26,14.353-2.795l2.164-5.973L343.262,97.439z"/>
	<path style="fill:#FF9B4B;" d="M259.445,196.252c-1.053,0.142-2.091,0.081-3.096-0.115c-0.56,2.096-0.168,4.415,1.549,6.084
		l9.646,9.386c1.878,1.827,4.694,2.294,7.061,1.17l37.888-17.996c2.51-1.192,3.568-3.687,3.387-6.127L259.445,196.252z"/>
	<path style="fill:#FF9B4B;" d="M430.834,300.846c-0.06-0.516,0.021-1.013,0.058-1.517l-0.821,0.046
		c-2.617,0.148-4.865,1.907-5.637,4.411l-12.363,40.082c-1.396,4.526,2.538,8.904,7.186,8.001l17.114-3.327L430.834,300.846z"/>
</g>
<g>
	<circle style="fill:#C83C3C;" cx="119.632" cy="281.57" r="17.046"/>
	<circle style="fill:#C83C3C;" cx="162.247" cy="392.37" r="17.046"/>
	<circle style="fill:#C83C3C;" cx="281.57" cy="383.847" r="17.046"/>
</g>
<g>
</g>
<g>
</g>
<g>
</g>
<g>
</g>
<g>
</g>
<g>
</g>
<g>
</g>
<g>
</g>
<g>
</g>
<g>
</g>
<g>
</g>
<g>
</g>
<g>
</g>
<g>
</g>
<g>
</g>
</svg>
